<svg xmlns="http://www.w3.org/2000/svg" xmlns:xlink="http://www.w3.org/1999/xlink" width="1917" height="1079" viewBox="0 0 1917 1079">
  <defs>
    <clipPath id="clip-path">
      <rect id="Rectangle_165" data-name="Rectangle 165" width="1917" height="1079" transform="translate(-14552 -2729)" fill="#fff" stroke="#707070" stroke-width="1"/>
    </clipPath>
    <clipPath id="clip-path-2">
      <rect id="Rectangle_164" data-name="Rectangle 164" width="2156" height="1328" transform="translate(-14761 -2501)" fill="#fff" stroke="#707070" stroke-width="1"/>
    </clipPath>
    <linearGradient id="linear-gradient" x1="-0.004" y1="0.5" x2="0.985" y2="0.5" gradientUnits="objectBoundingBox">
      <stop offset="0" stop-color="#000651"/>
      <stop offset="0.221" stop-color="#003289"/>
      <stop offset="0.389" stop-color="#004fae"/>
      <stop offset="0.478" stop-color="#005abc"/>
      <stop offset="0.593" stop-color="#0057b8"/>
      <stop offset="0.692" stop-color="#004fae"/>
      <stop offset="0.784" stop-color="#00419c"/>
      <stop offset="0.872" stop-color="#002d83"/>
      <stop offset="0.957" stop-color="#001464"/>
      <stop offset="1" stop-color="#000651"/>
    </linearGradient>
    <linearGradient id="linear-gradient-2" x1="-21.551" y1="59.85" x2="-20.95" y2="58.947" gradientUnits="objectBoundingBox">
      <stop offset="0" stop-color="#fff"/>
      <stop offset="1" stop-color="#d7d9dc"/>
    </linearGradient>
    <linearGradient id="linear-gradient-3" x1="178.99" y1="36.244" x2="179.671" y2="35.392" xlink:href="#linear-gradient-2"/>
    <linearGradient id="linear-gradient-4" x1="-131.314" y1="115.303" x2="-130.949" y2="114.277" gradientUnits="objectBoundingBox">
      <stop offset="0" stop-color="#1b1b1c"/>
      <stop offset="1" stop-color="#575758"/>
    </linearGradient>
    <linearGradient id="linear-gradient-5" x1="-66.874" y1="59.5" x2="-66.51" y2="58.473" xlink:href="#linear-gradient-4"/>
    <linearGradient id="linear-gradient-6" x1="-67.335" y1="58.557" x2="-66.97" y2="57.53" xlink:href="#linear-gradient-4"/>
    <linearGradient id="linear-gradient-7" x1="-115.055" y1="103.867" x2="-114.691" y2="102.841" xlink:href="#linear-gradient-4"/>
  </defs>
  <g id="Mask_Group_2" data-name="Mask Group 2" transform="translate(14552 2729)" clip-path="url(#clip-path)">
    <g id="Mask_Group_1" data-name="Mask Group 1" transform="translate(107 -477)" clip-path="url(#clip-path-2)">
      <rect id="Rectangle_131" data-name="Rectangle 131" width="1920" height="10957.106" transform="translate(-14660.947 -2254.307)" fill="url(#linear-gradient)"/>
      <path id="Path_4304" data-name="Path 4304" d="M1427.661,1036.741l-91.484,109.706L1482,1188.939Z" transform="translate(-14660.957 -2254.307)" opacity="0.28" fill="url(#linear-gradient-2)" style="mix-blend-mode: multiply;isolation: isolate"/>
      <path id="Path_4305" data-name="Path 4305" d="M1610,753.63l64.978-44.516-71.018-44.388Z" transform="translate(-14660.957 -2254.307)" opacity="0.28" fill="url(#linear-gradient-3)" style="mix-blend-mode: multiply;isolation: isolate"/>
      <g id="Group_3172" data-name="Group 3172" transform="translate(-14458.002 -2204.039)" opacity="0.42">
        <g id="Group_6" data-name="Group 6" transform="translate(-202.357 -46.268)">
          <path id="Path_3" data-name="Path 3" d="M-80.5,508.389,387.444-46.268l-37.4,1072.077,238.81-538.483L836.892,739.934,1101.535,471.35l461.5,347.791,166.08-71.9" transform="translate(190.356 46.268)" fill="none" stroke="#8f9294" stroke-miterlimit="10" stroke-width="0.5"/>
          <path id="Path_4" data-name="Path 4" d="M263.493,83.641l-465.85,29.809L-64.849,516.106,383.466,255.873,441.707,540.24l67.949-95.586,96.97,254.157L841.046,529l284.292,125.513L1298.9,303.7l33.438,645.689,157.836-254.161,161.021,161.795,65.922-79.565" transform="translate(202.357 33.475)" fill="none" stroke="#8f9294" stroke-miterlimit="10" stroke-width="0.5"/>
          <path id="Path_5" data-name="Path 5" d="M-202.357,105.838l357.869,83.775L374.258,756.238l492.332-210L628.439,498.806l97.127-242.377L869.179,384.8,1109.3,588.631l24.914-239.687,321.309-48.786L1535.809,496.4" transform="translate(202.357 315.839)" fill="none" stroke="#8f9294" stroke-miterlimit="10" stroke-width="0.5"/>
          <path id="Path_6" data-name="Path 6" d="M428.617,344.634l153.029-71.755L691.354,562.69l229.138-77.175" transform="translate(351.008 179.33)" fill="none" stroke="#8f9294" stroke-miterlimit="10" stroke-width="0.5"/>
          <path id="Path_7" data-name="Path 7" d="M-80.5,398.494,63.181,444.31l-8.807-111.6" transform="translate(190.356 152.775)" fill="none" stroke="#8f9294" stroke-miterlimit="10" stroke-width="0.5"/>
          <path id="Path_8" data-name="Path 8" d="M351.032,423.652l-159,54.144L358.93,631.99,482.788,530.1Z" transform="translate(273.948 208.121)" fill="none" stroke="#8f9294" stroke-miterlimit="10" stroke-width="0.5"/>
        </g>
      </g>
      <path id="Path_4306" data-name="Path 4306" d="M1465.75,674.334a3.387,3.387,0,1,1-2.845-3.855A3.388,3.388,0,0,1,1465.75,674.334Z" transform="translate(-14660.957 -2254.307)" opacity="0.28" fill="url(#linear-gradient-4)"/>
      <circle id="Ellipse_728" data-name="Ellipse 728" cx="6.662" cy="6.662" r="6.662" transform="translate(-13235.984 -1599.492) rotate(-81.432)" opacity="0.28" fill="url(#linear-gradient-5)"/>
      <circle id="Ellipse_729" data-name="Ellipse 729" cx="6.662" cy="6.662" r="6.662" transform="translate(-13149.08 -1634.141) rotate(-81.432)" opacity="0.28" fill="url(#linear-gradient-6)"/>
      <path id="Path_4322" data-name="Path 4322" d="M1283.59,605.83a3.9,3.9,0,1,1-3.275-4.438A3.9,3.9,0,0,1,1283.59,605.83Z" transform="translate(-14660.957 -2254.307)" opacity="0.28" fill="url(#linear-gradient-7)"/>
      <rect id="Rectangle_132" data-name="Rectangle 132" width="1920.18" height="1080.69" transform="translate(-14660.547 -1172.583)" fill="#fff"/>
    </g>
  </g>
</svg>
